<svg width="21" height="21" viewBox="0 0 21 21" fill="none" xmlns="http://www.w3.org/2000/svg">
<path fill-rule="evenodd" clip-rule="evenodd" d="M10.5 1.87889C13.3078 1.87889 13.6403 1.8896 14.7492 1.94008C15.7744 1.98685 16.3312 2.15807 16.7018 2.30217C17.1553 2.47711 17.5672 2.74506 17.9109 3.08878C18.2546 3.4325 18.5226 3.84437 18.6975 4.2979C18.8415 4.66844 19.0128 5.22524 19.0596 6.25048C19.1102 7.35933 19.1208 7.6919 19.1208 10.4997C19.1208 13.3075 19.1101 13.6401 19.0596 14.7489C19.0128 15.7742 18.8416 16.3309 18.6975 16.7015C18.5225 17.155 18.2546 17.5669 17.9109 17.9106C17.5671 18.2543 17.1553 18.5223 16.7018 18.6972C16.3312 18.8412 15.7744 19.0125 14.7492 19.0593C13.6405 19.1099 13.308 19.1205 10.5 19.1205C7.69198 19.1205 7.35944 19.1098 6.25075 19.0593C5.22551 19.0125 4.66871 18.8413 4.29817 18.6972C3.84464 18.5223 3.43276 18.2543 3.08904 17.9106C2.74532 17.5669 2.47737 17.155 2.30244 16.7015C2.15841 16.3309 1.98712 15.7742 1.94035 14.7489C1.88975 13.6401 1.87916 13.3075 1.87916 10.4997C1.87916 7.6919 1.88987 7.35933 1.94035 6.25048C1.98712 5.22524 2.15834 4.66844 2.30244 4.2979C2.47739 3.84438 2.74534 3.43251 3.08906 3.08879C3.43278 2.74508 3.84465 2.47712 4.29817 2.30217C4.66871 2.15818 5.22551 1.98685 6.25075 1.94008C7.3596 1.88948 7.69217 1.87889 10.5 1.87889ZM10.5 0C7.64838 0 7.29083 0.0120854 6.17074 0.0631794C5.05318 0.114197 4.2899 0.291687 3.62201 0.551249C2.92452 0.820995 2.29108 1.23348 1.76228 1.76228C1.23349 2.29108 0.820995 2.92452 0.551249 3.62201C0.291687 4.28994 0.114197 5.05318 0.0631794 6.17074C0.0120854 7.29068 0 7.64822 0 10.5C0 13.3517 0.0120854 13.7091 0.0631794 14.8292C0.114197 15.9467 0.291687 16.71 0.551249 17.3779C0.820976 18.0754 1.23346 18.7088 1.76226 19.2376C2.29106 19.7664 2.92451 20.1788 3.62201 20.4485C4.2899 20.7082 5.05318 20.8857 6.17074 20.9369C7.29068 20.9878 7.64822 21 10.5 21C13.3517 21 13.7091 20.9878 14.8292 20.9369C15.9467 20.8857 16.71 20.7082 17.3779 20.4485C18.0754 20.1789 18.7089 19.7664 19.2376 19.2376C19.7664 18.7088 20.1789 18.0754 20.4485 17.3779C20.7082 16.71 20.8857 15.9467 20.9369 14.8292C20.9878 13.7092 21 13.3517 21 10.5C21 7.64822 20.9878 7.29083 20.9369 6.17074C20.8857 5.05318 20.7082 4.28994 20.4485 3.62201C20.1788 2.92451 19.7664 2.29105 19.2376 1.76225C18.7088 1.23345 18.0754 0.820968 17.3779 0.551249C16.71 0.291687 15.9467 0.114197 14.8292 0.0631794C13.7092 0.0120854 13.3517 0 10.5 0ZM10.5 5.1115C9.43426 5.1115 8.39248 5.42752 7.50638 6.01959C6.62028 6.61167 5.92964 7.45321 5.52181 8.43779C5.11399 9.42238 5.00728 10.5058 5.21519 11.551C5.4231 12.5962 5.93628 13.5564 6.68985 14.3099C7.44342 15.0635 8.40353 15.5767 9.44876 15.7846C10.494 15.9925 11.5774 15.8858 12.562 15.478C13.5466 15.0701 14.3881 14.3795 14.9802 13.4934C15.5723 12.6073 15.8883 11.5655 15.8883 10.4998C15.8883 9.07074 15.3206 7.7002 14.3101 6.6897C13.2996 5.6792 11.929 5.1115 10.5 5.1115ZM10.5 14.0092C9.80587 14.0092 9.12736 13.8034 8.55023 13.4178C7.97311 13.0322 7.5233 12.4841 7.25768 11.8428C6.99206 11.2015 6.92256 10.4959 7.05797 9.81516C7.19339 9.13439 7.52763 8.50908 8.01843 8.01827C8.50923 7.52747 9.13455 7.19323 9.81531 7.05782C10.4961 6.92241 11.2017 6.99191 11.843 7.25753C12.4842 7.52315 13.0323 7.97296 13.4179 8.55008C13.8036 9.1272 14.0094 9.80571 14.0094 10.4998C14.0094 11.4306 13.6396 12.3232 12.9815 12.9813C12.3234 13.6395 11.4307 14.0092 10.5 14.0092ZM17.3526 4.90448C17.3526 5.15317 17.2789 5.39628 17.1407 5.60307C17.0026 5.80985 16.8062 5.97102 16.5764 6.06619C16.3467 6.16136 16.0939 6.18627 15.85 6.13775C15.606 6.08923 15.382 5.96948 15.2061 5.79363C15.0303 5.61778 14.9105 5.39373 14.862 5.14982C14.8135 4.90591 14.8384 4.65308 14.9336 4.42333C15.0288 4.19357 15.1899 3.99719 15.3967 3.85903C15.6035 3.72087 15.8466 3.64713 16.0953 3.64714C16.4288 3.64714 16.7486 3.77961 16.9844 4.01541C17.2202 4.25121 17.3526 4.57101 17.3526 4.90448Z" fill="#6D6D6D"/>
</svg>
