<svg width="280" height="49" viewBox="0 0 280 49" fill="none" xmlns="http://www.w3.org/2000/svg">
<g clip-path="url(#clip0_141_277)">
<path d="M63.624 16.3762C61.4587 18.2565 60.8604 18.342 60.5755 18.342C59.7778 18.342 59.208 17.6297 59.208 16.9175C59.208 16.4901 59.4074 16.0628 59.8918 15.7779C62.3419 14.3534 64.7921 11.8462 66.5299 8.94026C66.8148 8.48442 67.1852 8.28499 67.5841 8.28499C68.3248 8.28499 69.094 8.96875 69.094 9.73798C69.094 10.1084 68.8661 10.8206 66.359 13.6411L66.0456 26.3192C66.0171 27.1454 65.3049 27.5727 64.6211 27.5727C63.9374 27.5727 63.2821 27.1739 63.2821 26.3762V26.3192L63.624 16.3762ZM71.9715 8.02858L61.5442 8.08556C60.6325 8.08556 60.1767 7.43029 60.1767 6.77502C60.1767 6.11975 60.6325 5.46448 61.5442 5.46448L70.547 5.52146L70.5185 3.29924V3.27075C70.5185 2.41605 71.2593 1.96021 72 1.96021C72.7408 1.96021 73.4815 2.41605 73.4815 3.29924L73.453 5.52146L82.4274 5.46448C83.3106 5.46448 83.7664 6.11975 83.7664 6.77502C83.7664 7.43029 83.3106 8.08556 82.4274 8.08556L71.9715 8.02858ZM75.1624 10.5642C76.5584 10.5072 78.2109 10.4787 78.9231 10.4787H78.9801C80.8319 10.4787 81.5157 11.3619 81.5157 12.4445C81.5157 13.7836 79.5784 18.1141 76.7864 21.4189C78.6097 22.8434 80.8034 23.869 83.1681 24.3249C83.9658 24.4958 84.3077 25.0371 84.3077 25.6069C84.3077 26.3762 83.7094 27.1739 82.6838 27.1739C81.7721 27.1739 78.2963 26.2052 75.0485 23.2707C71.6582 26.4616 68.4103 27.3163 67.9544 27.3163C67.0997 27.3163 66.473 26.6041 66.473 25.9203C66.473 25.436 66.7579 24.9802 67.4986 24.7807C69.7208 24.1539 71.6581 22.9574 73.3106 21.4759C72.2564 20.2508 71.3732 18.8833 70.775 17.5443C70.2336 18.228 69.6638 18.8548 69.0656 19.4246C68.6667 19.795 68.2678 19.9659 67.8975 19.9659C67.2137 19.9659 66.6724 19.3676 66.6724 18.7123C66.6724 18.3705 66.8148 18.0001 67.1567 17.6867C69.0371 15.9773 71.5157 12.7579 72.8262 9.28214C73.0826 8.59838 73.5955 8.31348 74.0798 8.31348C74.792 8.31348 75.4758 8.88328 75.4758 9.62402C75.4758 9.82345 75.4188 10.0229 75.3334 10.2223L75.1624 10.5642ZM74.3077 16.2622C73.7949 16.0913 73.567 15.7209 73.567 15.2935C73.567 14.6668 74.0798 13.983 74.8205 13.983C75.1909 13.983 76.473 14.4388 77.7835 15.2366C78.0684 14.6098 78.3248 13.983 78.5527 13.3562C78.5812 13.2138 78.6097 13.1283 78.6097 13.0143C78.6097 12.7009 78.3533 12.644 78.1824 12.644C77.4701 12.644 75.3903 12.6725 74.0513 12.7009C73.51 13.6411 72.9117 14.6098 72.2849 15.5215C72.8832 17.0599 73.7949 18.4844 74.963 19.738C75.5613 18.9972 76.1311 18.2565 76.6154 17.4588C75.8177 16.889 74.963 16.4616 74.3077 16.2622Z" fill="#6D6D6D"/>
<path d="M89.3504 21.9032C90.0627 21.134 91.4872 19.1967 92.2279 17.9716C93.3391 16.1482 95.3903 17.5727 94.792 18.9402C94.1083 20.5072 92.7123 22.416 91.6012 23.7266C89.8633 25.7778 87.5556 23.8405 89.3504 21.9032ZM95.6752 24.4388C94.1368 23.6696 95.0769 21.4474 96.7863 22.1596C101.601 24.1254 102.285 20.7636 100.661 18.4844C99.8918 17.4018 98.2393 15.9203 97.6126 15.208C96.0171 13.3562 98.4388 12.2451 99.4929 13.3277C100.576 14.4388 102.114 16.0058 103.026 17.2593C106.9 22.53 101.943 27.5157 95.6752 24.4388ZM101.687 11.8747C100.148 12.2451 99.322 10.5357 100.576 9.85192C101.174 9.53853 101.259 9.31061 101.003 8.91175C100.376 7.85762 99.1795 7.14537 98.6382 6.43312C97.6126 5.0656 99.5499 3.81203 100.718 4.98013C101.886 6.14822 104.678 7.9146 104.764 9.56702C104.821 10.3647 104.422 11.2764 103.054 11.4759C102.684 11.5328 102.142 11.7608 101.687 11.8747ZM109.066 22.359C108.382 20.3078 106.872 18.8263 105.903 18.171C104.45 17.1739 105.903 15.322 107.499 16.2622C109.066 17.2023 110.803 18.5984 111.744 20.8206C112.712 23.0713 109.749 24.4103 109.066 22.359Z" fill="#6D6D6D"/>
<path d="M127.84 10.4786C130.233 10.2792 132.057 11.6752 132.171 14.8661C132.228 16.8604 131.943 19.4245 131.202 21.2193C130.034 24.0399 127.242 25.4359 124.507 24.6381C122.256 23.9829 123.168 21.3618 124.906 21.7891C126.53 22.188 127.726 21.9316 128.524 20.2507C129.179 18.8547 129.436 16.8319 129.436 15.3219C129.436 13.584 128.837 12.7578 127.527 12.8718C127.099 12.9003 126.672 12.9572 126.216 13.0142C124.82 17.4302 122.911 21.3048 120.689 24.4672C119.322 26.4045 116.359 24.7521 118.21 22.6723C120.176 20.4786 121.943 17.2307 123.253 13.4131L122.911 13.4701C121.686 13.698 120.575 13.8689 119.834 13.8689C117.897 13.8689 117.926 11.3048 119.749 11.1339C120.632 11.0484 121.515 11.0769 122.541 10.9914L123.965 10.849C124.307 9.59541 124.678 7.9145 124.849 6.31906C125.048 4.4672 127.954 4.63814 127.726 6.54698C127.612 7.51564 127.242 9.22504 126.9 10.5641L127.84 10.4786ZM138.324 16.8889C137.641 15.3219 136.359 13.1567 134.25 11.9886C132.854 11.2193 134.108 9.08259 135.874 10.1082C138.153 11.4473 140.176 13.4701 140.945 15.5213C141.658 17.4017 139.094 18.6552 138.324 16.8889Z" fill="#6D6D6D"/>
<path d="M148.325 20.5072C148.211 17.5158 148.524 15.0941 148.667 12.0742C148.752 10.2223 148.952 7.43031 148.895 5.66393C148.838 3.55566 152.057 3.7266 152 5.60695C151.943 7.40182 151.744 10.1084 151.601 12.0172C151.402 15.0371 150.974 17.6297 151.088 20.3933C151.259 24.5528 156.33 24.2679 161.288 20.3648C163.14 18.9118 164.877 21.5329 163.254 22.8434C157.698 27.3733 148.581 28.1995 148.325 20.5072Z" fill="#6D6D6D"/>
<path d="M183.139 10.792C182.683 14.4103 180.119 19.7949 177.384 22.3305C175.19 24.3533 172.797 23.2422 171.544 20.792C169.749 17.2593 171.658 11.9601 175.475 9.31056C178.98 6.88891 184.193 6.49005 187.783 8.65529C192.199 11.3049 192.911 16.547 190.433 20.6211C189.094 22.8148 186.302 24.5812 183.481 25.322C180.974 25.9772 180.091 23.0997 182.541 22.5299C184.706 22.0456 186.9 20.8205 187.84 19.3391C189.863 16.1482 189.094 12.416 186.273 10.6211C185.162 9.90886 183.965 9.56697 182.74 9.4815C183.054 9.7664 183.225 10.2222 183.139 10.792ZM176.814 11.3334C174.165 13.3846 172.74 17.1738 173.937 19.3675C174.364 20.1938 175.105 20.6211 175.817 19.9943C177.954 18.114 179.948 13.5841 180.233 10.5071C180.262 10.1653 180.347 9.85188 180.49 9.62396C179.179 9.90886 177.897 10.5071 176.814 11.3334Z" fill="#6D6D6D"/>
<path d="M200.946 24.9231C200.331 24.9231 199.795 24.4958 199.795 23.8519C199.795 23.6354 199.846 23.3961 200.011 23.1283C200.735 21.8975 201.379 20.0229 201.567 18.4673C201.647 17.8234 202.103 17.5328 202.61 17.5328C203.174 17.5328 203.789 17.9602 203.789 18.7123C203.789 19.7038 202.986 22.8092 202.074 24.2565C201.778 24.7123 201.35 24.9288 200.952 24.9288L200.946 24.9231ZM204.348 25.379L204.456 16.0571C203.869 16.1653 201.51 16.4616 201.242 16.4616C200.627 16.4616 200.279 15.8975 200.279 15.3619C200.279 14.8776 200.547 14.3989 201.111 14.3704C201.43 14.3704 201.806 14.3192 202.211 14.2907C202.695 13.7266 203.231 13.0314 203.766 12.2565C202.883 11.322 201.436 10.2223 200.821 9.79495C200.473 9.55563 200.313 9.23084 200.313 8.91175C200.313 8.37614 200.769 7.84053 201.356 7.84053C201.544 7.84053 201.732 7.89181 201.943 8.00007L202.103 8.07985C202.826 6.87187 203.738 4.91745 204.086 3.47586C204.217 2.94024 204.65 2.70093 205.105 2.70093C205.721 2.70093 206.416 3.12828 206.416 3.82343C206.416 4.51859 204.917 7.624 203.789 9.3391C204.194 9.68668 204.621 10.0628 204.969 10.4103C205.772 9.04281 206.496 7.624 206.923 6.52999C207.111 6.04566 207.487 5.85762 207.886 5.85762C208.53 5.85762 209.197 6.34195 209.197 7.03711C209.197 7.97158 206.627 11.9659 205.048 14.0286C205.96 13.9203 206.843 13.812 207.487 13.7323C207.328 13.4645 207.168 13.1967 207.003 13.0086C206.843 12.7921 206.764 12.5813 206.764 12.3932C206.764 11.9089 207.248 11.5385 207.755 11.5385C208.935 11.5385 210.217 14.5642 210.217 15.2081C210.217 15.983 209.652 16.4958 209.117 16.4958C208.769 16.4958 208.422 16.2565 208.262 15.6639L208.182 15.4246C207.806 15.5043 207.328 15.5841 206.764 15.6924L206.792 25.3847C206.792 26.2394 206.177 26.6439 205.561 26.6439C204.946 26.6439 204.359 26.2394 204.359 25.4132V25.3847L204.348 25.379ZM208.444 21.8405C208.308 20.7408 207.829 19.4018 207.425 18.6553C207.316 18.4673 207.293 18.2793 207.293 18.1197C207.293 17.6126 207.749 17.2878 208.256 17.2878C209.812 17.2878 210.746 20.9573 210.746 21.5442C210.746 22.3477 210.08 22.832 209.459 22.832C208.974 22.832 208.519 22.5357 208.439 21.8405H208.444ZM213.077 13.4873C212.325 13.4873 211.954 12.9232 211.954 12.3647V12.2565C211.738 12.4958 211.527 12.7636 211.311 13.0086C211.071 13.3049 210.746 13.4132 210.456 13.4132C209.789 13.4132 209.117 12.8263 209.117 12.1824C209.117 11.9146 209.225 11.6753 209.464 11.4303C211.259 9.69238 212.786 7.25363 214.097 4.95164C214.661 3.98868 215.407 3.53284 216.188 3.53284C216.969 3.53284 217.795 3.98868 218.439 4.84338C219.966 6.84908 221.869 8.99153 223.795 10.7636C224.063 11.0314 224.194 11.3277 224.194 11.6183C224.194 12.3704 223.47 13.0884 222.695 13.0884C222.348 13.0884 222 12.9573 221.704 12.6041C220.046 10.7807 218.091 8.2109 216.775 6.41603C216.587 6.17671 216.456 6.03996 216.291 6.03996C216.154 6.03996 216.023 6.14822 215.863 6.44452C214.872 8.2109 213.829 9.81774 212.701 11.2935C212.809 11.265 212.94 11.2422 213.077 11.2422H219.664C220.388 11.2422 220.735 11.8063 220.735 12.3647C220.735 12.9232 220.388 13.4873 219.664 13.4873H213.077ZM216.61 17.7722C216.262 19.1625 215.618 21.1739 214.952 22.9915C216.399 22.775 217.926 22.5357 219.345 22.2679C218.969 21.8405 218.57 21.436 218.165 21.1169C217.869 20.8776 217.738 20.6098 217.738 20.3135C217.738 19.7494 218.302 19.2137 218.969 19.2137C219.208 19.2137 219.504 19.2935 219.744 19.51C221.858 21.1967 223.681 23.7437 223.681 24.6269C223.681 25.4303 222.957 26.0457 222.262 26.0457C221.863 26.0457 221.459 25.8291 221.219 25.2707C221.06 24.8947 220.872 24.5186 220.655 24.1482C216.826 25.1112 211.499 25.8861 210.718 25.8861C209.886 25.8861 209.459 25.2422 209.459 24.6269C209.459 24.0115 209.835 23.4474 210.638 23.4189C211.174 23.3904 211.818 23.3676 212.513 23.2878C213.128 21.6297 213.692 19.4588 214.011 17.8006L211.117 17.8291H211.088C210.365 17.8291 209.989 17.2935 209.989 16.7294C209.989 16.1653 210.365 15.6297 211.111 15.6297H222.199C222.923 15.6297 223.271 16.1653 223.271 16.7294C223.271 17.2935 222.923 17.8291 222.199 17.8291L216.604 17.7779L216.61 17.7722Z" fill="#6D6D6D"/>
<path d="M242.051 20.9857V25.5896C242.051 26.3133 241.407 26.6894 240.763 26.6894C240.12 26.6894 239.476 26.3133 239.476 25.5896V20.9857H236.313C235.481 20.9857 235.111 20.45 235.111 19.8859C235.111 19.3218 235.538 18.7065 236.313 18.7065H239.476V18.0398L239.556 12.8204C237.493 16.2734 234.547 19.6238 231.145 22.2221C230.826 22.4614 230.479 22.5697 230.182 22.5697C229.43 22.5697 228.843 21.9828 228.843 21.3104C228.843 20.9059 229.06 20.4785 229.538 20.1594C233.02 17.8005 236.097 14.564 238.348 10.6267L230.929 10.7349H230.9C230.068 10.7349 229.692 10.1708 229.692 9.61244C229.692 8.99706 230.12 8.35318 230.923 8.35318H239.464V3.88025C239.464 3.10532 240.08 2.72925 240.724 2.72925C241.367 2.72925 242.034 3.13381 242.034 3.88025V8.35318H250.553C251.328 8.35318 251.704 8.94007 251.704 9.56116C251.704 10.1822 251.328 10.7406 250.553 10.7406H250.524L243.105 10.6324C245.464 14.4899 248.781 17.2991 251.994 19.4187C252.45 19.7378 252.638 20.1139 252.638 20.5184C252.638 21.2706 251.943 21.9885 251.083 21.9885C250.786 21.9885 250.467 21.8802 250.148 21.6694C247.311 19.6067 244.148 16.205 241.954 12.6723L242.034 18.0284V18.7236H245.219C245.994 18.7236 246.37 19.2877 246.37 19.8461C246.37 20.4045 245.994 20.9971 245.219 20.9971H242.034L242.051 20.9857Z" fill="#6D6D6D"/>
<path d="M278.718 8.66667C276.684 8.61539 272.428 8.5869 268.866 8.5869C266.804 8.5869 264.986 8.61539 263.937 8.61539C263.003 8.61539 262.65 9.09972 262.65 9.84616C262.598 14.7464 262.969 21.3105 259.943 25.1624C259.596 25.6182 259.168 25.8063 258.735 25.8063C258.012 25.8063 257.316 25.2194 257.316 24.5755C257.316 24.3875 257.396 24.1709 257.556 23.9601C259.778 21.1738 260.126 17.265 260.126 13.5442C260.126 12.2336 260.097 10.9174 260.074 9.68661V9.60684C260.074 7.4359 261.117 6.31339 263.556 6.2849C264.815 6.2849 266.502 6.25641 268.348 6.25641V4.302C268.348 3.41881 269.043 2.99146 269.738 2.99146C270.433 2.99146 271.128 3.41881 271.128 4.302V6.2849C274.126 6.2849 277.071 6.31339 278.735 6.33618C279.59 6.33618 279.994 6.90029 279.994 7.48718C279.994 8.07408 279.567 8.66667 278.735 8.66667H278.707H278.718ZM272.074 14.6952V17.641C273.333 17.641 274.564 17.6695 275.607 17.6923C277.163 17.7208 278.257 18.8433 278.314 19.9943C278.342 20.5299 278.365 21.0655 278.365 21.6011C278.365 22.1368 278.336 22.7009 278.314 23.3162C278.234 24.7066 277.163 25.886 275.476 25.943C274.029 25.9943 272.53 26.0228 271.083 26.0228C269.635 26.0228 268.245 25.9943 266.986 25.943C265.14 25.8632 264.148 24.8205 264.091 23.3447C264.063 22.7806 264.063 22.302 264.063 21.8974C264.063 21.3105 264.063 20.7977 264.091 20.2108C264.143 19.0029 264.923 17.7493 266.929 17.6923C267.681 17.6638 268.587 17.641 269.556 17.641L269.527 10.302C269.527 9.52707 270.143 9.17949 270.787 9.17949C271.43 9.17949 272.097 9.55556 272.097 10.302L272.069 12.3932H278.524C279.328 12.3932 279.727 12.9573 279.727 13.5442C279.727 14.1311 279.322 14.6952 278.524 14.6952H272.069H272.074ZM275.852 21.7607C275.852 20.3704 275.801 19.8348 274.644 19.8063C273.761 19.7778 272.661 19.755 271.539 19.755C270.171 19.755 268.781 19.7835 267.658 19.8063C266.667 19.8348 266.507 20.4501 266.507 21.7892C266.507 22.0855 266.507 22.3761 266.536 22.7009C266.616 23.8006 267.043 23.8006 271.305 23.8006C275.106 23.8006 275.778 23.8006 275.829 22.7009C275.858 22.3533 275.858 22.057 275.858 21.7664L275.852 21.7607Z" fill="#6D6D6D"/>
<path d="M102.211 43.7665C102.177 43.7608 102.114 43.7209 102.011 43.6582C101.909 43.5955 101.823 43.5328 101.744 43.4816C101.687 43.4189 101.652 43.3505 101.641 43.2764C101.63 43.208 101.641 43.1112 101.67 42.9915C101.704 42.8719 101.744 42.7066 101.801 42.4901C101.806 42.3078 101.846 42.0855 101.915 41.8177C101.983 41.5556 102.063 41.3334 102.16 41.1625C102.16 41.077 102.182 40.9573 102.222 40.8035C102.262 40.6496 102.313 40.4958 102.37 40.3306C102.433 40.1653 102.484 40.0229 102.53 39.9032L102.747 39.2821L103.225 38.8776L103.846 39.3106C103.812 39.3562 103.784 39.4132 103.761 39.4759C103.738 39.5385 103.704 39.6468 103.664 39.8006C103.624 39.9545 103.561 40.1881 103.482 40.5072C103.419 40.7237 103.345 40.9516 103.271 41.2023C103.197 41.4531 103.128 41.681 103.06 41.8975C102.997 42.114 102.94 42.2907 102.895 42.4217C102.798 42.7807 102.712 43.0656 102.638 43.2707C102.564 43.4816 102.49 43.6183 102.422 43.6981C102.353 43.7779 102.279 43.8006 102.199 43.7779L102.211 43.7665ZM102.883 39.7551L102.467 39.2308C102.308 38.9915 102.182 38.7693 102.086 38.5585C101.989 38.3476 101.92 38.0969 101.88 37.7949C101.823 37.6012 101.789 37.4246 101.772 37.2536C101.755 37.0884 101.749 36.8947 101.755 36.6724C101.755 36.4559 101.766 36.1824 101.772 35.8519C101.778 35.5499 101.829 35.2992 101.915 35.1055C102 34.9118 102.063 34.7807 102.097 34.718C102.262 34.5756 102.405 34.5471 102.507 34.6325C102.61 34.718 102.695 34.8662 102.747 35.077C102.798 35.2878 102.821 35.5043 102.815 35.7323C102.838 36.587 102.895 37.2308 102.974 37.6696C103.06 38.1083 103.162 38.3818 103.294 38.4844C103.39 38.5072 103.47 38.5015 103.544 38.4559C103.618 38.4103 103.709 38.3249 103.823 38.1938C103.937 38.0627 104.103 37.8861 104.308 37.6753C104.53 37.4417 104.752 37.1967 104.98 36.9402C105.202 36.6781 105.419 36.4331 105.618 36.1938C105.818 35.9545 106.006 35.7494 106.171 35.5727C106.336 35.3961 106.462 35.2821 106.558 35.2251C106.593 35.1796 106.644 35.134 106.724 35.0998C106.803 35.0656 106.917 35.0257 107.071 34.9858C107.134 35.0029 107.174 35.0542 107.18 35.134C107.185 35.2194 107.219 35.2992 107.276 35.379C107.294 35.4075 107.328 35.4588 107.385 35.5214C107.442 35.5841 107.464 35.6354 107.459 35.6753C107.459 35.6981 107.425 35.7494 107.35 35.8348C107.276 35.9203 107.202 36.0001 107.123 36.0798C107.043 36.1596 106.986 36.2223 106.946 36.2565C106.843 36.342 106.684 36.4958 106.462 36.718C106.239 36.9402 106.017 37.1739 105.784 37.4246C105.55 37.6753 105.356 37.9032 105.197 38.1026C104.843 38.5072 104.53 38.8605 104.256 39.1568C103.983 39.4531 103.812 39.6297 103.749 39.681C103.744 39.6981 103.692 39.7095 103.595 39.7095C103.499 39.7095 103.43 39.7494 103.39 39.812L102.889 39.7494L102.883 39.7551Z" fill="#6D6D6D"/>
<path d="M108.837 42.7749C108.735 42.7749 108.649 42.7578 108.592 42.7179C108.535 42.678 108.461 42.621 108.37 42.5526C108.216 42.3931 108.097 42.2222 108.005 42.0398C107.914 41.8575 107.88 41.6979 107.903 41.5612C107.926 41.4985 107.937 41.4073 107.926 41.2877C107.886 41.2478 107.874 41.2193 107.891 41.2136C107.909 41.2022 107.926 41.1794 107.937 41.1452C107.983 41.1452 108 41.0996 107.983 41.0142C107.966 40.9515 107.994 40.8147 108.062 40.6039C108.131 40.3931 108.222 40.1937 108.342 39.9999C108.387 39.9202 108.461 39.8176 108.558 39.6808C108.655 39.5498 108.758 39.4187 108.877 39.2877C108.991 39.1566 109.099 39.0484 109.196 38.9686C109.396 38.8033 109.584 38.6666 109.755 38.564C109.926 38.4615 110.102 38.3874 110.273 38.3475C110.45 38.3076 110.632 38.2905 110.82 38.2905C111.008 38.2905 111.162 38.3532 111.282 38.4843C111.464 38.564 111.595 38.6723 111.669 38.809C111.743 38.9458 111.795 39.1224 111.817 39.3333C111.84 39.5726 111.817 39.8689 111.743 40.2108C111.675 40.5583 111.476 40.9572 111.156 41.413C110.957 41.6979 110.763 41.9259 110.57 42.0854C110.376 42.2449 110.165 42.3931 109.937 42.5298C109.772 42.6438 109.589 42.7065 109.396 42.735C109.202 42.7578 109.014 42.7806 108.832 42.792L108.837 42.7749ZM110.062 41.3105C110.239 41.1566 110.364 40.9914 110.438 40.809C110.513 40.6267 110.598 40.4102 110.684 40.1652C110.718 40.1196 110.735 40.0398 110.752 39.9259C110.763 39.8119 110.763 39.7036 110.758 39.5954C110.752 39.4871 110.723 39.4244 110.672 39.4073C110.598 39.3504 110.53 39.339 110.456 39.3675C110.382 39.3959 110.29 39.4472 110.182 39.527C109.943 39.7264 109.721 39.9543 109.515 40.2165C109.31 40.4786 109.168 40.792 109.088 41.168C109.065 41.3675 109.088 41.5156 109.156 41.6182C109.225 41.7207 109.339 41.7435 109.493 41.7036C109.646 41.6581 109.84 41.5327 110.062 41.3162V41.3105Z" fill="#6D6D6D"/>
<path d="M115.778 44.302C115.732 44.3304 115.624 44.2963 115.453 44.188C115.288 44.0797 115.145 43.9601 115.031 43.8347C114.974 43.772 114.94 43.7037 114.923 43.6296C114.906 43.5555 114.912 43.4188 114.934 43.225C114.969 43.1396 114.986 43.0541 114.986 42.9743C114.986 42.8945 114.991 42.8376 114.991 42.8091C114.991 42.7635 115.003 42.6495 115.031 42.4729C115.06 42.2963 115.088 42.1139 115.122 41.9145C115.157 41.7208 115.185 41.5669 115.208 41.4643C115.208 41.453 115.214 41.4302 115.225 41.3789C115.236 41.3276 115.248 41.2934 115.254 41.2706C115.271 41.2022 115.288 41.1111 115.31 41.0085C115.333 40.9059 115.356 40.7635 115.385 40.5926C115.447 40.3931 115.504 40.1937 115.544 40C115.59 39.8062 115.612 39.6695 115.612 39.6011C115.612 39.4587 115.669 39.3561 115.778 39.2934C115.783 39.2535 115.812 39.1908 115.852 39.1054C115.892 39.0199 115.926 38.9515 115.96 38.8946C116.12 38.4387 116.251 38.074 116.353 37.8062C116.456 37.5384 116.564 37.2991 116.678 37.0997C116.724 36.9629 116.781 36.8262 116.838 36.6837C116.895 36.5413 116.957 36.4273 117.026 36.3475C117.083 36.2336 117.179 36.0968 117.316 35.9373C117.459 35.772 117.607 35.6182 117.766 35.4644C117.926 35.3105 118.051 35.2022 118.148 35.1282C118.325 35.0427 118.484 34.9686 118.638 34.9116C118.792 34.8547 118.952 34.8262 119.117 34.8262C119.271 34.8262 119.402 34.8604 119.516 34.9287C119.63 34.9971 119.806 35.1339 120.034 35.339C120.114 35.4416 120.154 35.5441 120.154 35.641C120.154 35.7379 120.131 35.8176 120.091 35.8803C120.034 36.0057 119.949 36.1652 119.84 36.3532C119.726 36.5413 119.624 36.7065 119.516 36.8547C119.413 37.0028 119.339 37.0769 119.288 37.0883C119.191 37.1453 119.094 37.1624 118.986 37.1339C118.883 37.1111 118.832 37.037 118.832 36.9173C118.832 36.8604 118.832 36.7863 118.843 36.6894C118.866 36.5869 118.895 36.4957 118.934 36.4159C118.969 36.3361 119.003 36.2678 119.037 36.2108C119.1 36.1082 119.117 36.0057 119.088 35.9145C119.06 35.8233 118.957 35.7777 118.781 35.7948C118.758 35.8119 118.712 35.8461 118.644 35.9088C118.575 35.9715 118.501 36.0342 118.427 36.1139C118.353 36.1937 118.285 36.2621 118.228 36.3304C118.171 36.3988 118.142 36.4444 118.142 36.4672C118.057 36.6324 117.966 36.7692 117.88 36.8718C117.823 36.9515 117.778 37.0256 117.738 37.0997C117.698 37.1738 117.681 37.225 117.681 37.2649C117.681 37.2934 117.681 37.3219 117.669 37.3504C117.664 37.3732 117.641 37.3846 117.607 37.3846C117.55 37.5441 117.493 37.6809 117.43 37.7891C117.396 37.8689 117.362 37.943 117.328 38.0114C117.293 38.0797 117.259 38.131 117.225 38.1595L117.214 38.1823C117.14 38.3646 117.088 38.5071 117.048 38.604C117.008 38.7008 116.986 38.7578 116.986 38.7692C116.986 38.8034 117.031 38.8148 117.128 38.8148C117.225 38.8148 117.339 38.8034 117.476 38.7749C117.612 38.7464 117.744 38.7179 117.869 38.6837C117.983 38.6495 118.063 38.6381 118.108 38.6381C118.154 38.6381 118.234 38.6552 118.336 38.6837C118.399 38.7236 118.45 38.792 118.49 38.8946C118.53 38.9971 118.558 39.094 118.581 39.1965C118.598 39.2991 118.604 39.3675 118.581 39.4188C118.575 39.453 118.484 39.4928 118.313 39.5498C118.142 39.6068 117.971 39.6524 117.806 39.6809C117.664 39.7151 117.499 39.7492 117.322 39.7834C117.14 39.8176 116.986 39.8518 116.849 39.8917C116.712 39.9259 116.644 39.9601 116.632 39.9943C116.598 39.9943 116.575 40.0171 116.553 40.0569C116.53 40.0968 116.524 40.131 116.524 40.1652C116.524 40.2678 116.501 40.3532 116.461 40.4159C116.444 40.4615 116.422 40.5641 116.382 40.7122C116.348 40.8604 116.308 41.0199 116.273 41.1908C116.239 41.3618 116.205 41.5213 116.177 41.6695C116.148 41.8176 116.137 41.9145 116.137 41.9601C116.091 42.0171 116.063 42.0854 116.051 42.1709C116.046 42.2564 116.04 42.3304 116.04 42.3931C116.006 42.4558 115.989 42.5128 115.983 42.5641C115.977 42.6153 115.971 42.6609 115.971 42.6894V42.735C115.971 42.735 115.971 42.7806 115.96 42.8091C115.954 42.8888 115.943 42.9914 115.932 43.1282C115.92 43.2592 115.914 43.3903 115.914 43.5156L115.88 43.8632C115.875 43.9658 115.857 44.0569 115.84 44.131C115.818 44.2051 115.789 44.2621 115.749 44.302H115.778Z" fill="#6D6D6D"/>
<path d="M124.359 42.9287C124.302 42.9629 124.228 42.9515 124.136 42.8945C124.045 42.8375 123.954 42.7578 123.869 42.6438C123.812 42.5469 123.772 42.4501 123.743 42.3532C123.715 42.2563 123.703 42.1025 123.703 41.9031C123.709 41.7435 123.715 41.6353 123.709 41.5726C123.709 41.5099 123.669 41.5099 123.601 41.5612C123.532 41.6125 123.401 41.7321 123.202 41.9259C123.003 42.1253 122.815 42.2962 122.632 42.433C122.456 42.5754 122.307 42.6381 122.193 42.6324C122.136 42.6324 122.062 42.5982 121.966 42.5242C121.869 42.4501 121.777 42.3646 121.692 42.2563C121.607 42.1481 121.538 42.0455 121.498 41.9487C121.453 41.7549 121.447 41.5099 121.498 41.2079C121.544 40.9059 121.618 40.5868 121.72 40.2563C121.823 39.9259 121.943 39.6125 122.074 39.3219C122.205 39.0313 122.336 38.792 122.467 38.6153C122.598 38.4387 122.712 38.3532 122.809 38.3589C122.946 38.376 123.065 38.4387 123.162 38.5583C123.265 38.6723 123.339 38.7977 123.396 38.9344C123.43 38.9914 123.441 39.037 123.436 39.0769C123.436 39.1167 123.396 39.1623 123.333 39.2193C123.265 39.3162 123.173 39.4529 123.077 39.6296C122.98 39.8062 122.877 39.9999 122.775 40.2108C122.678 40.4159 122.587 40.6153 122.513 40.8034C122.438 40.9914 122.381 41.1452 122.353 41.2649C122.319 41.3846 122.319 41.4415 122.353 41.4415C122.467 41.4415 122.569 41.413 122.666 41.3504C122.763 41.2934 122.883 41.1908 123.025 41.0598C123.191 40.8945 123.339 40.7236 123.47 40.5526C123.601 40.3817 123.732 40.1823 123.863 39.96C123.966 39.8005 124.079 39.6239 124.193 39.4358C124.307 39.2478 124.381 39.111 124.416 39.0313C124.53 38.8261 124.609 38.6666 124.666 38.564C124.723 38.4615 124.792 38.3988 124.871 38.3703H125.145C125.191 38.376 125.248 38.4159 125.31 38.4786C125.373 38.5071 125.441 38.5526 125.51 38.6096C125.578 38.6666 125.612 38.7122 125.612 38.7521C125.578 38.8318 125.532 38.9515 125.464 39.1053C125.396 39.2592 125.344 39.3732 125.316 39.4472C125.162 39.7891 125.02 40.131 124.877 40.4615C124.735 40.792 124.638 41.1281 124.569 41.4757C124.552 41.5897 124.552 41.715 124.564 41.8632C124.575 42.0113 124.598 42.1196 124.632 42.1823C124.655 42.2279 124.683 42.2848 124.723 42.3418C124.758 42.4045 124.803 42.4501 124.849 42.49C124.923 42.5355 124.917 42.5982 124.849 42.6723C124.775 42.7407 124.683 42.8034 124.575 42.8546C124.467 42.9059 124.404 42.9344 124.376 42.9344L124.359 42.9287Z" fill="#6D6D6D"/>
<path d="M129.299 42.7749C129.179 42.735 129.071 42.6724 128.98 42.5812C128.888 42.4957 128.849 42.3533 128.866 42.1481C128.883 42.0285 128.906 41.9031 128.94 41.7721C128.974 41.641 129.014 41.51 129.059 41.3846C129.082 41.2422 129.111 41.0997 129.151 40.9516C129.19 40.8034 129.247 40.6724 129.339 40.547C129.441 40.2507 129.549 39.9601 129.663 39.6695C129.777 39.3789 129.869 39.0769 129.948 38.7521C130.068 38.4672 130.176 38.2108 130.279 37.9886C130.376 37.7664 130.501 37.4758 130.643 37.1282C130.723 36.9459 130.792 36.7407 130.854 36.5128C130.917 36.2849 131.008 36.0855 131.133 35.9088C131.19 35.8347 131.23 35.7778 131.259 35.7208C131.287 35.6695 131.316 35.6182 131.35 35.5726C131.407 35.4587 131.492 35.4074 131.606 35.4188C131.72 35.4302 131.8 35.4587 131.84 35.5157C131.977 35.5726 132.074 35.6752 132.125 35.8233C132.182 35.9715 132.199 36.0798 132.188 36.1424C132.188 36.2279 132.153 36.3248 132.091 36.4273C132.057 36.4615 132.028 36.5071 131.994 36.5641C131.96 36.6268 131.914 36.7008 131.851 36.7977C131.817 36.9003 131.789 37.0085 131.755 37.1111C131.72 37.2137 131.686 37.3105 131.646 37.396C131.606 37.4815 131.561 37.5726 131.515 37.6581C131.47 37.7436 131.435 37.8177 131.418 37.8746C131.344 38.057 131.27 38.2336 131.185 38.4102C131.099 38.5869 131.025 38.7635 130.963 38.9573C130.9 39.1396 130.831 39.3333 130.757 39.5384C130.689 39.7436 130.592 39.9373 130.484 40.1196C130.427 40.1994 130.398 40.3077 130.393 40.4444C130.393 40.5812 130.37 40.7122 130.341 40.8376C130.284 40.98 130.233 41.1111 130.193 41.2308C130.148 41.3504 130.125 41.4245 130.125 41.4587C130.068 41.6353 130.028 41.8063 129.994 41.9772C129.96 42.1481 129.908 42.2963 129.84 42.4273C129.84 42.6211 129.789 42.735 129.686 42.7863C129.584 42.8376 129.453 42.8319 129.304 42.7863L129.299 42.7749ZM132.039 42.8775C131.914 42.8604 131.817 42.8376 131.755 42.7977C131.692 42.7635 131.572 42.6781 131.396 42.5527C131.299 42.4558 131.179 42.3077 131.037 42.1083C130.894 41.9088 130.752 41.698 130.604 41.4701C130.455 41.2422 130.33 41.0484 130.222 40.8889L130.883 40.0513C130.985 40.1766 131.071 40.2963 131.133 40.4102C131.196 40.5242 131.247 40.5983 131.287 40.6382C131.47 40.906 131.612 41.1282 131.72 41.2934C131.823 41.4587 131.914 41.5954 131.988 41.698C132.062 41.8006 132.148 41.8917 132.245 41.9715C132.341 42.0513 132.461 42.1367 132.615 42.2222C132.638 42.2393 132.661 42.2735 132.683 42.3362C132.706 42.3988 132.718 42.4558 132.706 42.5185C132.689 42.6154 132.632 42.6894 132.535 42.7521C132.433 42.8148 132.267 42.849 132.039 42.8661V42.8775ZM130.307 40.6667C130.262 40.5299 130.25 40.3761 130.279 40.2051C130.307 40.0342 130.37 39.9202 130.478 39.8632C130.512 39.8063 130.547 39.7721 130.581 39.7493C130.615 39.7265 130.638 39.7037 130.649 39.6695C130.666 39.6353 130.706 39.5954 130.775 39.5384C130.843 39.4815 130.906 39.4302 130.963 39.3846C131.088 39.3048 131.23 39.208 131.39 39.0883C131.549 38.9686 131.698 38.8547 131.846 38.735C131.994 38.6154 132.119 38.5128 132.216 38.4273C132.313 38.3419 132.376 38.2849 132.404 38.2621C132.427 38.2279 132.478 38.2108 132.552 38.1994C132.626 38.188 132.7 38.1994 132.775 38.2336C132.871 38.2564 132.945 38.3077 133.008 38.3875C133.065 38.4672 133.099 38.5812 133.099 38.7236C133.122 38.8091 133.077 38.9174 132.951 39.0427C132.826 39.1681 132.672 39.2877 132.49 39.4074C132.427 39.4473 132.341 39.51 132.233 39.584C132.125 39.6638 132.034 39.7379 131.954 39.812C131.897 39.8404 131.817 39.8974 131.709 39.9715C131.601 40.0456 131.51 40.1196 131.43 40.1937C131.367 40.2336 131.293 40.302 131.208 40.4045C131.122 40.5071 131.031 40.5755 130.928 40.6268C130.672 40.8661 130.518 40.98 130.467 40.9743C130.416 40.9687 130.37 40.8604 130.33 40.661L130.307 40.6667Z" fill="#6D6D6D"/>
<path d="M136.564 42.6381C136.467 42.6609 136.359 42.6381 136.239 42.5527C136.12 42.4672 136.011 42.376 135.914 42.2507C135.818 42.131 135.761 42.0228 135.738 41.9259C135.704 41.7607 135.715 41.5555 135.766 41.3105C135.818 41.0655 135.909 40.8091 136.034 40.5299C136.159 40.2564 136.319 39.9829 136.513 39.7151C136.706 39.4473 136.917 39.2079 137.157 38.9914C137.396 38.7749 137.652 38.6097 137.932 38.49C138.051 38.4273 138.137 38.3817 138.182 38.3646C138.228 38.3475 138.279 38.3419 138.325 38.3646C138.37 38.3874 138.456 38.4273 138.575 38.49C138.689 38.5242 138.798 38.5584 138.917 38.604C139.031 38.6495 139.134 38.7293 139.225 38.849C139.288 38.9686 139.339 39.0883 139.367 39.2079C139.402 39.3276 139.424 39.4644 139.453 39.6125C139.516 39.8119 139.538 39.943 139.521 40C139.504 40.0626 139.481 40.1082 139.453 40.1367C139.39 40.2165 139.373 40.2564 139.407 40.2564C139.402 40.3134 139.379 40.3703 139.345 40.4216C139.288 40.5983 139.248 40.7635 139.219 40.9173C139.191 41.0712 139.196 41.2079 139.225 41.3276C139.288 41.5042 139.373 41.6068 139.481 41.641C139.59 41.6695 139.732 41.6011 139.909 41.4245C139.994 41.3618 140.097 41.3162 140.205 41.2991C140.319 41.2763 140.37 41.2991 140.37 41.3675C140.416 41.4074 140.456 41.4302 140.49 41.4302C140.53 41.4302 140.547 41.4701 140.536 41.5441C140.524 41.6182 140.513 41.7037 140.49 41.8005C140.467 41.8974 140.433 41.9772 140.393 42.0399C140.273 42.1595 140.216 42.2393 140.216 42.2792C140.159 42.3361 140.102 42.3931 140.04 42.4444C139.897 42.5299 139.715 42.5755 139.493 42.5755C139.271 42.5755 139.105 42.5299 138.986 42.4444C138.866 42.3589 138.746 42.2507 138.632 42.1196C138.518 41.9943 138.444 41.8746 138.41 41.7607L138.347 41.641L138 41.8689C137.914 41.9544 137.846 42.0228 137.806 42.0683C137.766 42.1139 137.732 42.1481 137.698 42.1823C137.675 42.2165 137.647 42.245 137.618 42.2678C137.59 42.2906 137.561 42.302 137.527 42.302H137.407C137.407 42.3361 137.35 42.376 137.242 42.4273C137.134 42.4786 137.008 42.5242 136.872 42.5641C136.735 42.604 136.627 42.6267 136.547 42.6267L136.564 42.6381ZM137.037 41.5441C137.134 41.4872 137.248 41.4131 137.367 41.3219C137.487 41.2364 137.595 41.1453 137.698 41.0598C137.795 40.9743 137.869 40.9003 137.92 40.8433C137.949 40.8148 137.989 40.7578 138.034 40.6894C138.08 40.6154 138.125 40.5527 138.182 40.4957C138.365 40.2849 138.484 40.1253 138.53 40C138.575 39.8746 138.558 39.7436 138.473 39.6011C138.439 39.5156 138.399 39.4644 138.353 39.4587C138.308 39.453 138.205 39.4815 138.051 39.5441C137.954 39.6011 137.852 39.6923 137.738 39.8176C137.624 39.943 137.51 40.0911 137.396 40.2507C137.282 40.4102 137.174 40.5755 137.077 40.7407C136.98 40.906 136.906 41.0598 136.843 41.1966C136.781 41.3333 136.752 41.4416 136.752 41.5213C136.752 41.5498 136.775 41.5897 136.809 41.641C136.855 41.641 136.929 41.6125 137.031 41.5498L137.037 41.5441Z" fill="#6D6D6D"/>
<path d="M144.211 42.9402C143.789 42.9402 143.476 42.8034 143.277 42.5356C143.22 42.4103 143.197 42.2792 143.197 42.1481C143.197 42.0171 143.231 41.9202 143.288 41.8632C143.345 41.8006 143.413 41.8177 143.493 41.9031C143.596 41.9658 143.744 42 143.938 42C144.034 42 144.12 42 144.194 41.9943C144.268 41.9943 144.359 41.9829 144.462 41.9772C144.644 41.9601 144.764 41.9088 144.815 41.812C144.866 41.7151 144.855 41.6353 144.775 41.5726H144.787C144.57 41.5157 144.359 41.4359 144.154 41.3333C143.943 41.2308 143.772 41.1111 143.63 40.9801C143.487 40.849 143.402 40.7236 143.379 40.604C143.316 40.3419 143.334 40.0684 143.425 39.7892C143.522 39.51 143.658 39.265 143.841 39.0598C143.915 39.0142 144.012 38.9402 144.143 38.849C144.268 38.7578 144.359 38.7066 144.416 38.7009V38.7123C144.57 38.5527 144.741 38.4217 144.929 38.3248C145.123 38.2279 145.345 38.1311 145.601 38.0456L145.795 38.0228C145.892 38.0057 145.972 38 146.046 38C146.04 38 146.057 38.0057 146.103 38.0228C146.148 38.0399 146.188 38.0513 146.222 38.057C146.268 38.0798 146.319 38.0912 146.365 38.0912C146.479 38.1083 146.587 38.1652 146.695 38.2621C146.804 38.359 146.889 38.4786 146.957 38.6097C147.026 38.7407 147.049 38.8661 147.037 38.9744C147.014 39.1567 146.946 39.339 146.832 39.5214C146.718 39.698 146.598 39.8006 146.473 39.8291C146.49 39.8234 146.473 39.8063 146.428 39.7835C146.382 39.7607 146.336 39.7379 146.296 39.7094L146.251 39.7322C146.245 39.6866 146.228 39.6467 146.217 39.6125C146.183 39.5556 146.165 39.4986 146.148 39.4359C146.137 39.3732 146.131 39.2991 146.143 39.2194C146.16 39.1339 146.16 39.0826 146.154 39.0655C146.148 39.0484 146.097 39.037 146.012 39.0313C145.909 39.0085 145.778 39.0199 145.618 39.0598C145.459 39.1054 145.311 39.1795 145.174 39.2821C145.014 39.3846 144.895 39.4701 144.821 39.5328C144.747 39.5954 144.69 39.6581 144.65 39.7208C144.61 39.7778 144.564 39.8632 144.519 39.9772C144.485 40.0342 144.462 40.0855 144.433 40.1254C144.41 40.1709 144.399 40.2108 144.399 40.2507C144.399 40.3305 144.467 40.4103 144.604 40.4957C144.741 40.5812 144.94 40.6781 145.214 40.792C145.43 40.8775 145.573 40.9972 145.641 41.151C145.71 41.3048 145.772 41.4473 145.829 41.584C145.846 41.6125 145.863 41.6752 145.881 41.755C145.898 41.8405 145.903 41.8917 145.886 41.9031C145.903 41.9202 145.909 41.9373 145.909 41.9487V41.9373C145.972 42.057 145.96 42.1823 145.881 42.3134C145.801 42.4444 145.67 42.5641 145.493 42.6724C145.316 42.7806 145.117 42.8604 144.895 42.906H144.906C144.787 42.9231 144.667 42.9345 144.553 42.9402C144.439 42.9459 144.325 42.9516 144.222 42.9516L144.211 42.9402Z" fill="#6D6D6D"/>
<path d="M149.834 42.3989C149.777 42.4046 149.715 42.3875 149.646 42.3305C149.578 42.2792 149.515 42.2336 149.458 42.1937C149.379 42.0969 149.322 42.0171 149.293 41.943C149.259 41.869 149.248 41.7892 149.248 41.7037C149.248 41.6183 149.253 41.51 149.27 41.3903C149.31 41.265 149.356 41.0883 149.413 40.8775C149.47 40.661 149.538 40.4274 149.618 40.1823C149.635 40.0855 149.664 39.9715 149.709 39.8405C149.755 39.7094 149.8 39.5784 149.846 39.4587C149.891 39.339 149.931 39.2422 149.954 39.1795C150.011 38.9801 150.068 38.7863 150.125 38.604C150.182 38.4217 150.256 38.2108 150.347 37.9715C150.438 37.7322 150.541 37.4302 150.672 37.0598C150.849 36.5812 150.98 36.2222 151.065 35.9829C151.151 35.7436 151.219 35.5727 151.259 35.4701C151.299 35.3675 151.327 35.2821 151.344 35.2194C151.344 35.1567 151.39 35.094 151.481 35.0314C151.572 34.9744 151.652 34.9402 151.726 34.9402C151.84 34.9459 151.948 35.0143 152.051 35.1396C152.154 35.265 152.228 35.4131 152.268 35.5841C152.307 35.755 152.279 35.9202 152.182 36.0798C152.057 36.3647 151.926 36.6895 151.806 37.0428C151.686 37.396 151.561 37.7493 151.441 38.1026C151.322 38.4559 151.202 38.7749 151.082 39.0712C151.077 39.1111 151.048 39.1795 151.003 39.2764C150.957 39.3732 150.923 39.453 150.889 39.5157C150.854 39.5784 150.815 39.6695 150.758 39.7778C150.752 39.8234 150.735 39.8918 150.712 39.9829C150.689 40.0741 150.666 40.1482 150.638 40.2108C150.632 40.2507 150.615 40.302 150.604 40.3647C150.587 40.4274 150.575 40.49 150.57 40.5584C150.609 40.5128 150.666 40.4502 150.735 40.3875C150.809 40.3191 150.9 40.2336 151.008 40.1311C151.134 40.0171 151.248 39.9259 151.344 39.8462C151.441 39.7664 151.538 39.6923 151.629 39.6296C151.715 39.567 151.84 39.4758 151.988 39.3675C152.005 39.3447 152.022 39.3163 152.04 39.2821C152.057 39.2479 152.079 39.2308 152.108 39.2194C152.125 39.2023 152.154 39.1795 152.193 39.151C152.233 39.1225 152.273 39.094 152.313 39.0598C152.387 39.0143 152.461 38.9744 152.541 38.9402C152.621 38.906 152.706 38.8832 152.792 38.8661C152.877 38.849 152.963 38.8433 153.042 38.8433C153.139 38.8433 153.236 38.8832 153.344 38.9573C153.447 39.0314 153.544 39.1396 153.629 39.2764C153.709 39.3789 153.76 39.5043 153.777 39.641C153.795 39.7778 153.8 39.9658 153.783 40.1994C153.783 40.2621 153.766 40.3818 153.726 40.5584C153.692 40.7351 153.664 40.8661 153.646 40.9516L153.538 41.3561H153.635C153.721 41.322 153.852 41.3334 154.017 41.3789C154.057 41.4017 154.097 41.4302 154.131 41.4644C154.165 41.4929 154.199 41.5214 154.233 41.5328C154.279 41.5955 154.273 41.6866 154.211 41.8063C154.148 41.9259 154.074 42.0114 153.994 42.057C153.8 42.1824 153.635 42.2678 153.487 42.2963C153.339 42.3305 153.185 42.2963 153.025 42.2108C152.871 42.1083 152.775 41.9829 152.718 41.8405C152.666 41.698 152.644 41.4986 152.649 41.2536C152.683 40.9003 152.701 40.6496 152.712 40.4957C152.718 40.3419 152.678 40.2621 152.592 40.2621C152.495 40.2621 152.37 40.3077 152.205 40.3989C152.04 40.49 151.857 40.6154 151.658 40.7692C151.458 40.9231 151.259 41.094 151.065 41.2821C150.871 41.4701 150.695 41.6581 150.547 41.8519C150.45 41.9715 150.347 42.0912 150.233 42.2051C150.119 42.3191 149.988 42.3818 149.829 42.3875L149.834 42.3989Z" fill="#6D6D6D"/>
<path d="M157.937 42.6553C157.874 42.5926 157.829 42.4957 157.8 42.3704C157.772 42.245 157.761 42.114 157.772 41.9943C157.783 41.8747 157.8 41.7778 157.835 41.7151C157.835 41.6524 157.846 41.6012 157.863 41.567C157.88 41.5328 157.892 41.4986 157.88 41.4644C157.874 41.4302 157.88 41.3789 157.903 41.2992C157.926 41.2194 157.949 41.1453 157.977 41.0712C158.034 40.9459 158.097 40.7806 158.171 40.5755C158.239 40.3704 158.313 40.1653 158.387 39.9544C158.461 39.7436 158.518 39.5613 158.57 39.4017C158.621 39.2422 158.644 39.151 158.655 39.1225C158.655 39.0257 158.718 38.9744 158.849 38.9687C158.946 38.9345 159.06 38.9744 159.196 39.0883C159.333 39.2023 159.441 39.322 159.521 39.4473C159.584 39.51 159.607 39.5955 159.595 39.698C159.578 39.8006 159.527 39.9487 159.441 40.1425C159.407 40.2051 159.373 40.3134 159.327 40.4616C159.282 40.6097 159.253 40.7294 159.236 40.8262C159.202 40.8889 159.168 40.9801 159.122 41.094C159.077 41.208 159.043 41.322 159.008 41.4245C158.991 41.4644 158.974 41.5385 158.963 41.6467C158.946 41.755 158.929 41.8633 158.906 41.9772C158.883 42.0912 158.849 42.1767 158.809 42.2393C158.735 42.5641 158.61 42.7579 158.433 42.8148C158.256 42.8718 158.097 42.8205 157.96 42.6724L157.937 42.6553ZM159.225 37.8519C159.139 37.7892 159.071 37.7094 159.025 37.6183C158.98 37.5271 158.957 37.4473 158.957 37.3732C158.957 37.3049 158.957 37.2593 158.974 37.2422C159.054 37.1567 159.122 37.0371 159.185 36.8946C159.248 36.7522 159.31 36.6211 159.384 36.5014C159.402 36.4787 159.424 36.4445 159.453 36.3989C159.481 36.3533 159.51 36.3305 159.544 36.3191C159.641 36.2564 159.772 36.2564 159.943 36.3305C160.114 36.3989 160.239 36.5014 160.319 36.6325C160.393 36.7863 160.41 36.9402 160.387 37.0997C160.359 37.2593 160.273 37.4245 160.131 37.6012C160.011 37.7607 159.857 37.8633 159.675 37.9089C159.493 37.9544 159.345 37.9316 159.231 37.8519H159.225Z" fill="#6D6D6D"/>
<path d="M167.567 43.8746C167.407 43.7891 167.299 43.6808 167.242 43.5612C167.185 43.4415 167.162 43.3105 167.174 43.168C167.185 43.0256 167.214 42.8774 167.254 42.7236C167.316 42.4672 167.385 42.2563 167.464 42.0854C167.544 41.9144 167.618 41.7321 167.692 41.5441C167.766 41.356 167.835 41.1167 167.892 40.8204C168.017 40.5241 168.131 40.2449 168.234 39.9828C168.33 39.7207 168.439 39.4187 168.553 39.0882C168.558 39.054 168.593 38.9743 168.655 38.8375C168.712 38.7008 168.792 38.5355 168.883 38.3418C168.974 38.1481 169.065 37.9486 169.151 37.7492C169.288 37.3674 169.413 37.0426 169.533 36.7748C169.652 36.507 169.772 36.2677 169.897 36.0512C170.023 35.8347 170.154 35.6181 170.296 35.4073C170.393 35.2421 170.53 35.1395 170.701 35.1053C170.877 35.0768 171.043 35.0939 171.202 35.1623C171.362 35.2307 171.464 35.3446 171.516 35.5042C171.556 35.584 171.59 35.6751 171.618 35.7777C171.647 35.8803 171.675 36.0341 171.704 36.2392C171.732 36.4444 171.749 36.735 171.755 37.1167C171.772 37.5726 171.778 37.9885 171.783 38.3646C171.783 38.7464 171.801 39.0939 171.829 39.413C171.857 39.7321 171.909 40.0227 171.977 40.2848C172 40.4273 172.023 40.6039 172.051 40.8033C172.074 41.0085 172.103 41.2079 172.131 41.4073C172.159 41.6068 172.188 41.772 172.222 41.903C172.256 42.0341 172.285 42.1025 172.319 42.1025C172.359 42.1025 172.405 42.0683 172.456 41.9999C172.507 41.9315 172.575 41.7834 172.667 41.5612C172.752 41.3389 172.866 40.9971 173.003 40.5298C173.14 40.0626 173.305 39.4472 173.493 38.6609C173.533 38.5241 173.584 38.3076 173.652 37.9999C173.721 37.6979 173.772 37.3902 173.801 37.0768C173.857 36.8774 173.914 36.6609 173.966 36.4216C174.017 36.1822 174.074 35.9714 174.114 35.7891C174.154 35.6068 174.182 35.5042 174.182 35.4814C174.182 35.4244 174.182 35.3788 174.188 35.3389C174.188 35.2991 174.188 35.2592 174.182 35.2193C174.222 35.2193 174.256 35.168 174.291 35.0597C174.325 34.9515 174.336 34.8603 174.336 34.7805C174.336 34.6438 174.353 34.5355 174.393 34.4501C174.427 34.3646 174.467 34.3076 174.507 34.2677C174.593 34.1082 174.706 34.0284 174.849 34.0227C174.991 34.0227 175.117 34.0569 175.236 34.1424C175.356 34.2278 175.43 34.3304 175.453 34.4501C175.47 34.5355 175.453 34.735 175.385 35.0426C175.328 35.3503 175.236 35.7606 175.117 36.2791C175.117 36.3646 175.094 36.5127 175.048 36.7122C175.003 36.9116 174.952 37.1224 174.9 37.3446C174.849 37.5669 174.809 37.7606 174.786 37.9201C174.752 38.131 174.718 38.319 174.678 38.5013C174.638 38.678 174.598 38.7634 174.558 38.7577C174.353 39.658 174.131 40.4273 173.909 41.0597C173.681 41.6922 173.481 42.2107 173.305 42.6096C173.111 43.0483 172.866 43.3275 172.57 43.4529C172.268 43.5783 171.994 43.4757 171.738 43.1452C171.584 42.9344 171.459 42.735 171.356 42.5355C171.254 42.3361 171.168 42.1025 171.105 41.829C171.043 41.5555 170.986 41.2136 170.94 40.7976C170.895 40.4615 170.849 40.1367 170.815 39.8119C170.781 39.4871 170.752 39.1566 170.735 38.8204C170.718 38.4785 170.712 38.1196 170.724 37.7378C170.729 37.282 170.712 37.0142 170.672 36.9344C170.627 36.8546 170.564 36.9002 170.484 37.0654C170.405 37.2307 170.313 37.4586 170.211 37.7492C170.154 37.9087 170.091 38.0911 170.011 38.2962C169.937 38.5013 169.857 38.7008 169.778 38.9002C169.698 39.0996 169.63 39.2706 169.573 39.413C169.516 39.5555 169.481 39.6466 169.464 39.6865C169.419 39.7834 169.362 39.9087 169.299 40.0626C169.236 40.2164 169.185 40.3817 169.145 40.5583C168.86 41.3105 168.644 41.9543 168.507 42.4899C168.365 43.0313 168.268 43.3845 168.199 43.5612C168.12 43.7834 168.046 43.9201 167.977 43.9657C167.909 44.0113 167.778 43.9828 167.578 43.8689L167.567 43.8746Z" fill="#6D6D6D"/>
<path d="M177.664 42.7635C177.499 42.792 177.373 42.7863 177.288 42.735C177.202 42.6837 177.117 42.6154 177.031 42.5356C176.906 42.4729 176.786 42.3818 176.684 42.2678C176.581 42.1538 176.502 42.0285 176.445 41.9031C176.388 41.7778 176.365 41.6752 176.37 41.6011C176.393 41.3219 176.462 41.0199 176.57 40.6894C176.678 40.3647 176.815 40.0456 176.992 39.7322C177.162 39.4245 177.356 39.1453 177.578 38.9003C177.795 38.6553 178.034 38.4786 178.291 38.3704C178.45 38.3077 178.621 38.2849 178.804 38.2963C178.986 38.3134 179.111 38.3874 179.174 38.5242C179.294 38.7578 179.265 38.9003 179.088 38.9686C179.066 38.9686 179.037 38.98 179.003 38.9971C178.974 39.0199 178.957 39.0427 178.957 39.0769C178.992 39.094 179.077 39.094 179.219 39.0769C179.362 39.0655 179.51 39.0427 179.658 39.0085C179.806 38.9743 179.903 38.9345 179.955 38.8946C180 38.8718 180.04 38.8604 180.063 38.8604C180.086 38.8604 180.148 38.8661 180.245 38.8832C180.382 38.9231 180.45 38.9686 180.45 39.0256C180.45 39.0598 180.462 39.1054 180.484 39.1738C180.507 39.2421 180.536 39.2763 180.57 39.2763C180.627 39.282 180.638 39.339 180.61 39.4416C180.581 39.5441 180.49 39.6524 180.331 39.7664C180.177 39.8632 180.086 39.9259 180.051 39.9487C180.017 39.9772 180.011 40.0342 180.034 40.1196C180.097 40.2735 180.097 40.4558 180.023 40.6723C179.949 40.8889 179.829 41.1111 179.664 41.3447C179.499 41.5783 179.299 41.7949 179.071 41.9943C178.843 42.1994 178.61 42.3704 178.365 42.5071C178.12 42.6496 177.892 42.7293 177.675 42.7521L177.664 42.7635ZM177.704 41.755C177.738 41.755 177.789 41.7379 177.869 41.698C177.949 41.6638 178.012 41.6296 178.063 41.6068C178.097 41.5726 178.137 41.5384 178.188 41.4929C178.239 41.4473 178.279 41.4245 178.313 41.4188C178.342 41.4188 178.365 41.4017 178.37 41.3789C178.376 41.3504 178.405 41.2934 178.456 41.2023C178.502 41.1111 178.598 40.9743 178.741 40.792C178.9 40.6154 179.003 40.4729 179.049 40.3647C179.094 40.2564 179.1 40.1424 179.06 40.0114C179.054 39.9772 179.031 39.9601 178.992 39.9487C178.952 39.9373 178.912 39.9202 178.855 39.886C178.775 39.886 178.724 39.9031 178.695 39.943C178.667 39.9772 178.61 39.9601 178.524 39.886L178.331 39.6467L178.125 39.8518C178 39.9772 177.886 40.1367 177.784 40.3305C177.681 40.5242 177.607 40.7179 177.55 40.9174C177.493 41.1168 177.459 41.2934 177.442 41.4416C177.436 41.5612 177.453 41.641 177.499 41.6809C177.544 41.7208 177.613 41.7436 177.692 41.755H177.704Z" fill="#6D6D6D"/>
<path d="M189.248 43.3221C189.003 43.305 188.752 43.2138 188.507 43.0543C188.262 42.8891 188.034 42.7352 187.823 42.5928C187.687 42.456 187.584 42.3136 187.51 42.154C187.436 41.9945 187.379 41.795 187.333 41.5386C187.299 41.3848 187.299 41.1853 187.333 40.9403C187.362 40.6953 187.419 40.4446 187.487 40.1939C187.561 39.9432 187.63 39.7438 187.692 39.6013C187.789 39.3791 187.909 39.1398 188.057 38.8777C188.205 38.6155 188.353 38.3705 188.501 38.1369C188.65 37.9033 188.763 37.7096 188.855 37.5671C188.912 37.5101 188.934 37.4816 188.929 37.4702C188.929 37.4304 188.969 37.3278 189.054 37.1626C189.14 36.9973 189.214 36.8549 189.276 36.7238C189.396 36.5985 189.464 36.4902 189.481 36.4104C189.499 36.3306 189.481 36.268 189.447 36.2167C189.43 36.1882 189.464 36.1198 189.55 36.0116C189.635 35.909 189.749 35.7893 189.903 35.6583C190.057 35.5272 190.222 35.4076 190.404 35.305C190.598 35.1512 190.781 35.0714 190.963 35.06C191.145 35.0486 191.248 35.0828 191.282 35.174C191.282 35.1967 191.328 35.2024 191.419 35.191C191.51 35.1796 191.618 35.1569 191.744 35.1284C191.869 35.0999 191.977 35.0771 192.074 35.06C192.114 35.0144 192.205 34.9745 192.353 34.946C192.501 34.9175 192.672 34.8891 192.872 34.8663C192.974 34.872 193.088 34.8777 193.219 34.8663C193.345 34.8663 193.51 34.8549 193.709 34.8378C193.766 34.8207 193.846 34.8549 193.954 34.9403C194.063 35.0258 194.148 35.1398 194.211 35.2822C194.268 35.4247 194.216 35.55 194.068 35.6526C193.914 35.7551 193.675 35.8292 193.35 35.8691C193.111 35.9033 192.923 35.9261 192.792 35.9489C192.661 35.9717 192.518 35.9945 192.376 36.0173C192.228 36.0457 192.017 36.0913 191.738 36.154C191.538 36.1939 191.373 36.2281 191.236 36.2509C191.1 36.2737 190.986 36.3249 190.883 36.3933C190.781 36.4674 190.672 36.5928 190.553 36.7751C190.496 36.815 190.427 36.9175 190.336 37.0885C190.251 37.2537 190.159 37.4247 190.074 37.5899C189.852 37.9033 189.687 38.1312 189.578 38.2794C189.47 38.4275 189.43 38.5187 189.464 38.5586C189.687 38.6042 189.818 38.6326 189.846 38.6326C189.926 38.5928 190.023 38.5643 190.137 38.5472C190.251 38.5301 190.348 38.513 190.416 38.5016C190.912 38.3762 191.276 38.2794 191.51 38.2224C191.744 38.1597 191.914 38.1198 192.011 38.097C192.114 38.0742 192.199 38.0571 192.279 38.0514C192.393 37.966 192.507 37.9717 192.621 38.0685C192.735 38.1711 192.82 38.2851 192.866 38.4218C192.923 38.5814 192.923 38.7067 192.866 38.7922C192.809 38.8777 192.689 38.9517 192.501 39.0087C192.313 39.0657 192.051 39.1284 191.704 39.2081C191.362 39.2822 190.929 39.3905 190.41 39.5386C189.971 39.664 189.618 39.7438 189.345 39.7665C189.071 39.7893 188.946 39.721 188.963 39.5614C188.906 39.5272 188.843 39.5614 188.775 39.6526C188.706 39.7438 188.644 39.8691 188.587 40.0287C188.53 40.1882 188.479 40.3591 188.439 40.5415C188.393 40.7238 188.37 40.8948 188.359 41.0543C188.353 41.2138 188.359 41.3392 188.393 41.4247C188.456 41.607 188.558 41.7665 188.701 41.8976C188.838 42.0287 189.048 42.1369 189.316 42.2167C189.476 42.2224 189.63 42.2395 189.783 42.2509C189.937 42.268 190.108 42.2338 190.296 42.154C190.769 42.0742 191.094 41.9888 191.276 41.9033C191.459 41.8178 191.573 41.7552 191.612 41.7267C191.675 41.6925 191.721 41.664 191.738 41.6298C191.755 41.5956 191.789 41.5842 191.829 41.5842C191.806 41.6241 191.812 41.6241 191.852 41.5842C191.892 41.5443 191.954 41.4873 192.046 41.419C192.211 41.2765 192.382 41.1853 192.547 41.1569C192.712 41.1227 192.855 41.1227 192.969 41.1512C193.083 41.1797 193.14 41.2138 193.145 41.2537C193.191 41.3335 193.168 41.4589 193.071 41.6298C192.974 41.8007 192.832 41.9831 192.632 42.1768C192.439 42.3705 192.205 42.5415 191.943 42.6896C191.521 42.9118 191.06 43.0714 190.564 43.1626C190.068 43.2537 189.624 43.305 189.236 43.3107L189.248 43.3221Z" fill="#6D6D6D"/>
<path d="M196.598 42.3989C196.541 42.4046 196.478 42.3875 196.41 42.3305C196.341 42.2792 196.279 42.2336 196.222 42.1937C196.142 42.0969 196.085 42.0171 196.056 41.943C196.022 41.869 196.011 41.7892 196.011 41.7037C196.011 41.6183 196.016 41.51 196.034 41.3903C196.073 41.265 196.119 41.0883 196.176 40.8775C196.233 40.661 196.301 40.4274 196.381 40.1823C196.398 40.0855 196.427 39.9715 196.472 39.8405C196.518 39.7094 196.563 39.5784 196.609 39.4587C196.655 39.339 196.694 39.2422 196.717 39.1795C196.774 38.9801 196.831 38.7863 196.888 38.604C196.945 38.4217 197.019 38.2108 197.11 37.9715C197.202 37.7322 197.304 37.4302 197.435 37.0598C197.612 36.5812 197.743 36.2222 197.828 35.9829C197.914 35.7436 197.982 35.5727 198.022 35.4701C198.062 35.3675 198.091 35.2821 198.108 35.2194C198.108 35.1567 198.153 35.094 198.244 35.0314C198.336 34.9744 198.415 34.9402 198.489 34.9402C198.603 34.9459 198.712 35.0143 198.814 35.1396C198.917 35.265 198.991 35.4131 199.031 35.5841C199.071 35.755 199.042 35.9202 198.945 36.0798C198.82 36.3647 198.689 36.6895 198.569 37.0428C198.449 37.396 198.324 37.7493 198.204 38.1026C198.085 38.4559 197.965 38.7749 197.846 39.0712C197.84 39.1111 197.811 39.1795 197.766 39.2764C197.72 39.3732 197.686 39.453 197.652 39.5157C197.618 39.5784 197.578 39.6695 197.521 39.7778C197.515 39.8234 197.498 39.8918 197.475 39.9829C197.452 40.0741 197.43 40.1482 197.401 40.2108C197.395 40.2507 197.378 40.302 197.367 40.3647C197.35 40.4274 197.338 40.49 197.333 40.5584C197.373 40.5128 197.43 40.4502 197.498 40.3875C197.572 40.3191 197.663 40.2336 197.771 40.1311C197.897 40.0171 198.011 39.9259 198.108 39.8462C198.204 39.7664 198.301 39.6923 198.393 39.6296C198.478 39.567 198.603 39.4758 198.751 39.3675C198.769 39.3447 198.786 39.3163 198.803 39.2821C198.82 39.2479 198.843 39.2308 198.871 39.2194C198.888 39.2023 198.917 39.1795 198.957 39.151C198.997 39.1225 199.036 39.094 199.076 39.0598C199.15 39.0143 199.224 38.9744 199.304 38.9402C199.384 38.906 199.469 38.8832 199.555 38.8661C199.64 38.849 199.726 38.8433 199.806 38.8433C199.902 38.8433 199.999 38.8832 200.108 38.9573C200.21 39.0314 200.307 39.1396 200.393 39.2764C200.472 39.3789 200.524 39.5043 200.541 39.641C200.558 39.7778 200.563 39.9658 200.546 40.1994C200.546 40.2621 200.529 40.3818 200.489 40.5584C200.455 40.7351 200.427 40.8661 200.41 40.9516L200.301 41.3561H200.398C200.484 41.322 200.615 41.3334 200.78 41.3789C200.82 41.4017 200.86 41.4302 200.894 41.4644C200.928 41.4929 200.962 41.5214 200.996 41.5328C201.042 41.5955 201.036 41.6866 200.974 41.8063C200.911 41.9259 200.837 42.0114 200.757 42.057C200.563 42.1824 200.398 42.2678 200.25 42.2963C200.102 42.3305 199.948 42.2963 199.789 42.2108C199.635 42.1083 199.538 41.9829 199.481 41.8405C199.43 41.698 199.407 41.4986 199.412 41.2536C199.447 40.9003 199.464 40.6496 199.475 40.4957C199.481 40.3419 199.441 40.2621 199.355 40.2621C199.259 40.2621 199.133 40.3077 198.968 40.3989C198.803 40.49 198.62 40.6154 198.421 40.7692C198.222 40.9231 198.022 41.094 197.828 41.2821C197.635 41.4701 197.458 41.6581 197.31 41.8519C197.213 41.9715 197.11 42.0912 196.997 42.2051C196.883 42.3191 196.751 42.3818 196.592 42.3875L196.598 42.3989Z" fill="#6D6D6D"/>
<path d="M205.117 42.9631C205.014 42.9688 204.929 42.9631 204.866 42.9346C204.803 42.9061 204.723 42.8662 204.627 42.8092C204.45 42.6725 204.308 42.5072 204.188 42.3078C204.068 42.1084 204.017 41.9431 204.028 41.8064C204.045 41.7323 204.04 41.6411 204.017 41.5329C203.971 41.493 203.954 41.4645 203.971 41.4531C203.988 41.4417 204 41.4189 204.006 41.3847C204.068 41.3676 204.08 41.322 204.028 41.2537C204.006 41.191 204.017 41.0428 204.068 40.8149C204.12 40.587 204.188 40.3762 204.279 40.1767C204.319 40.0913 204.376 39.9716 204.45 39.8292C204.524 39.6867 204.61 39.5386 204.706 39.3904C204.803 39.2423 204.889 39.1283 204.968 39.0371C205.145 38.8377 205.299 38.6725 205.441 38.5471C205.584 38.4218 205.738 38.3249 205.914 38.2622C206.074 38.1995 206.233 38.171 206.399 38.1767C206.564 38.1824 206.706 38.2394 206.837 38.342C207.031 38.399 207.202 38.4844 207.35 38.5984C207.504 38.7123 207.607 38.8776 207.664 39.0827C207.726 39.3163 207.749 39.5841 207.732 39.9032C207.709 40.2166 207.572 40.6212 207.322 41.1169C207.168 41.4246 207.02 41.681 206.872 41.869C206.723 42.0628 206.547 42.2451 206.342 42.4218C206.188 42.5471 205.994 42.6611 205.755 42.7579C205.516 42.8548 205.305 42.9232 205.122 42.9631H205.117ZM206.154 41.1568C206.256 41.0143 206.342 40.8719 206.399 40.7408C206.456 40.6041 206.518 40.4161 206.57 40.1767C206.592 40.0913 206.61 39.983 206.61 39.852C206.61 39.7266 206.61 39.6069 206.598 39.4987C206.587 39.3904 206.558 39.3334 206.507 39.3277C206.404 39.2878 206.296 39.2878 206.188 39.3277C206.08 39.3619 205.954 39.4588 205.812 39.6183C205.686 39.7608 205.584 39.8975 205.504 40.0172C205.424 40.1369 205.362 40.2907 205.299 40.4616C205.242 40.6326 205.174 40.8548 205.1 41.1283C205.037 41.3904 205.031 41.6012 205.094 41.7608C205.151 41.9203 205.27 41.9659 205.447 41.8918C205.624 41.8178 205.852 41.5784 206.142 41.1625L206.154 41.1568Z" fill="#6D6D6D"/>
<path d="M214.245 42.8092C214.125 42.8092 214.011 42.7693 213.897 42.6952C213.783 42.6212 213.692 42.5129 213.624 42.3704C213.55 42.2337 213.516 42.0627 213.516 41.8747C213.516 41.7551 213.538 41.5841 213.584 41.3676C213.63 41.1511 213.692 40.8719 213.783 40.5357C213.801 40.4217 213.812 40.3533 213.823 40.3192C213.835 40.2907 213.84 40.2565 213.84 40.2223C213.84 40.2052 213.84 40.1938 213.84 40.1824C213.84 40.171 213.823 40.1653 213.812 40.1653C213.749 40.1653 213.664 40.2052 213.556 40.2907C213.447 40.3761 213.328 40.473 213.191 40.587C213.168 40.6041 213.14 40.6211 213.111 40.6496C213.083 40.6724 213.054 40.6952 213.026 40.718C212.997 40.7408 212.969 40.7636 212.934 40.7921C212.855 40.8377 212.735 40.9288 212.57 41.0656C212.405 41.2023 212.239 41.3448 212.068 41.4986C211.897 41.6525 211.749 41.7778 211.618 41.8804C211.556 41.926 211.499 41.9659 211.459 42.0001C211.413 42.0286 211.385 42.0457 211.368 42.0457C211.35 42.0457 211.288 42.0229 211.185 41.9773C211.077 41.9317 210.974 41.869 210.872 41.7835C210.775 41.6981 210.724 41.6012 210.724 41.4929C210.724 41.4246 210.752 41.2764 210.815 41.0599C210.872 40.8434 210.957 40.587 211.071 40.2964C211.185 40.0058 211.311 39.7038 211.453 39.3961C211.487 39.3277 211.51 39.2308 211.527 39.1112C211.544 38.9915 211.561 38.8719 211.578 38.7579C211.595 38.6439 211.635 38.5585 211.692 38.5015C211.715 38.4616 211.744 38.4331 211.783 38.4103C211.818 38.3932 211.858 38.3818 211.897 38.3818C211.977 38.3818 212.051 38.3989 212.125 38.4331C212.194 38.4673 212.262 38.5243 212.33 38.6041C212.45 38.7294 212.518 38.8833 212.53 39.0542C212.541 39.2251 212.53 39.3904 212.49 39.5499C212.45 39.7095 212.405 39.8405 212.359 39.9374C212.313 40.0343 212.285 40.0798 212.285 40.0627C212.319 40.0457 212.365 40.0058 212.422 39.9431C212.484 39.8804 212.587 39.8063 212.741 39.7152C212.946 39.5556 213.105 39.4417 213.219 39.3733C213.333 39.3049 213.419 39.2536 213.476 39.2251C213.538 39.191 213.59 39.1568 213.635 39.1169C213.675 39.0884 213.715 39.0599 213.755 39.0485C213.778 39.0485 213.823 39.0314 213.88 39.0029C213.943 38.9687 214 38.9573 214.051 38.9573C214.131 38.9573 214.217 38.9744 214.302 39.0086C214.387 39.0428 214.467 39.0941 214.53 39.1511C214.593 39.2137 214.627 39.2707 214.627 39.3391C214.627 39.3619 214.632 39.3847 214.65 39.3961C214.667 39.4132 214.684 39.4303 214.695 39.4588C214.735 39.5043 214.781 39.5727 214.832 39.6582C214.883 39.7437 214.912 39.8747 214.912 40.0571C214.912 40.1824 214.883 40.3704 214.826 40.6212C214.769 40.8662 214.712 41.1112 214.644 41.3505C214.581 41.5955 214.547 41.7949 214.553 41.9431C214.553 42.0912 214.57 42.2052 214.593 42.2793C214.615 42.3533 214.627 42.416 214.627 42.4673C214.627 42.53 214.593 42.6041 214.53 42.6895C214.467 42.775 214.37 42.8149 214.245 42.8149V42.8092Z" fill="#6D6D6D"/>
<path d="M224.712 36.4558C224.388 36.49 224.165 36.4501 224.046 36.3361C223.932 36.2222 223.886 36.1025 223.92 35.9772C223.943 35.8803 224 35.8005 224.091 35.7321C224.182 35.6638 224.353 35.6068 224.598 35.5612C224.684 35.5441 224.798 35.527 224.94 35.4985C225.083 35.4757 225.214 35.4529 225.339 35.4302C225.601 35.396 225.818 35.3675 225.989 35.3447C226.16 35.3219 226.336 35.2991 226.524 35.2877C226.707 35.2706 226.94 35.2535 227.219 35.2421C227.453 35.225 227.732 35.2079 228.057 35.1794C228.08 35.1794 228.165 35.1851 228.308 35.2022C228.45 35.2193 228.604 35.2364 228.775 35.2649C228.94 35.2877 229.066 35.3162 229.145 35.3504C229.328 35.3903 229.476 35.4643 229.59 35.5669C229.704 35.6695 229.772 35.7891 229.806 35.9259C229.829 36.0227 229.829 36.0968 229.806 36.1481C229.784 36.1994 229.738 36.2393 229.675 36.2735C229.493 36.3304 229.345 36.376 229.225 36.4102C229.105 36.4444 228.997 36.4444 228.883 36.4102C228.843 36.3703 228.798 36.3361 228.746 36.3019C228.695 36.2678 228.61 36.245 228.484 36.2222C228.359 36.1994 228.165 36.1823 227.903 36.1709C227.681 36.1937 227.487 36.2051 227.316 36.2051C227.145 36.2051 227.066 36.2279 227.066 36.2678L226.359 36.3019L225.772 36.3646C225.692 36.3703 225.578 36.3817 225.436 36.3931C225.294 36.4045 225.151 36.4159 225.02 36.4273C224.889 36.4387 224.781 36.4501 224.707 36.4672L224.712 36.4558ZM224.61 43.4928C224.467 43.4985 224.348 43.4302 224.251 43.2877C224.154 43.1453 224.114 43.0256 224.12 42.9287C224.125 42.8034 224.165 42.621 224.228 42.3817C224.291 42.1424 224.365 41.8974 224.444 41.6524C224.524 41.4074 224.598 41.2079 224.661 41.0655C224.69 40.9401 224.724 40.8262 224.752 40.7236C224.781 40.621 224.798 40.5584 224.809 40.5242C224.832 40.4957 224.872 40.4102 224.923 40.2735C224.974 40.1367 225.014 40.0057 225.048 39.8803C225.066 39.8176 225.1 39.6923 225.151 39.5156C225.202 39.3333 225.265 39.1282 225.345 38.8888C225.425 38.6495 225.499 38.4159 225.573 38.1823C225.647 37.9487 225.715 37.7492 225.772 37.5726C225.829 37.396 225.863 37.282 225.88 37.225C225.943 37.1282 225.994 37.037 226.023 36.9515C226.051 36.8661 226.074 36.8034 226.08 36.7749C226.125 36.7407 226.154 36.7008 226.165 36.6495C226.171 36.5982 226.177 36.5584 226.177 36.5242C226.177 36.4843 226.188 36.4558 226.217 36.4273C226.245 36.4045 226.256 36.376 226.256 36.3418C226.285 36.319 226.308 36.3133 226.313 36.3304C226.319 36.3475 226.348 36.3304 226.388 36.2963L226.45 35.8917L227.516 35.8803C227.499 35.9772 227.476 36.0911 227.442 36.2336C227.407 36.3703 227.333 36.5584 227.214 36.792C227.174 36.9515 227.128 37.094 227.077 37.225C227.026 37.3504 227.003 37.4359 227.009 37.4757C226.991 37.4928 226.957 37.5726 226.906 37.7151C226.855 37.8575 226.792 38.0341 226.724 38.2393C226.655 38.4444 226.587 38.6552 226.519 38.8604C226.45 39.0655 226.393 39.2478 226.336 39.4074C226.285 39.5612 226.251 39.6638 226.234 39.698C226.171 39.8233 226.097 40.0114 226.017 40.2621C225.937 40.5128 225.818 40.8433 225.658 41.2649C225.595 41.3903 225.516 41.584 225.425 41.8404C225.333 42.0968 225.259 42.3247 225.202 42.5356C225.117 42.8433 225.037 43.0712 224.969 43.2079C224.9 43.3447 224.838 43.4245 224.781 43.4529C224.724 43.4814 224.667 43.4985 224.604 43.5099L224.61 43.4928Z" fill="#6D6D6D"/>
<path d="M232.826 42.6154C232.587 42.7522 232.336 42.8319 232.068 42.849C231.8 42.8718 231.549 42.8319 231.322 42.7408C231.088 42.6496 230.906 42.5128 230.757 42.3305C230.678 42.2279 230.604 42.0627 230.53 41.8348C230.455 41.6069 230.444 41.2992 230.495 40.906C230.541 40.5413 230.655 40.171 230.837 39.7949C231.014 39.4188 231.236 39.0883 231.504 38.8034C231.772 38.5185 232.057 38.3191 232.364 38.2166C232.478 38.1767 232.587 38.1482 232.706 38.1254C232.82 38.1083 232.974 38.1026 233.168 38.1254C233.35 38.1482 233.515 38.1938 233.658 38.2621C233.8 38.3305 233.903 38.4046 233.971 38.4844C234.096 38.6097 234.182 38.7351 234.222 38.8547C234.262 38.9744 234.279 39.0883 234.267 39.2023C234.228 39.4587 234.114 39.7322 233.926 40.0285C233.738 40.3248 233.475 40.5413 233.139 40.6838C233.002 40.7408 232.843 40.775 232.661 40.792C232.478 40.8091 232.228 40.7864 231.908 40.718C231.715 40.6781 231.589 40.6952 231.532 40.7807C231.475 40.8661 231.447 41.0143 231.453 41.2479C231.47 41.3903 231.504 41.5157 231.555 41.624C231.606 41.7322 231.703 41.8063 231.846 41.8462C232.028 41.8804 232.159 41.8804 232.239 41.8462C232.319 41.8177 232.421 41.7778 232.541 41.7208C232.604 41.6809 232.666 41.6354 232.729 41.5898C232.786 41.5442 232.849 41.4929 232.906 41.4473C232.963 41.4017 233.014 41.3619 233.054 41.3391C233.094 41.3106 233.134 41.2878 233.173 41.2764C233.213 41.2707 233.253 41.265 233.293 41.265C233.379 41.2707 233.464 41.322 233.544 41.4074C233.624 41.4929 233.675 41.5784 233.698 41.6581C233.698 41.7208 233.658 41.812 233.578 41.926C233.498 42.0399 233.39 42.1596 233.259 42.2849C233.128 42.4103 232.98 42.5185 232.82 42.6154H232.826ZM232.672 39.9487C232.729 39.926 232.809 39.869 232.917 39.7835C233.025 39.698 233.122 39.6012 233.208 39.5043C233.293 39.4074 233.339 39.3277 233.339 39.2707C233.339 39.1852 233.282 39.1054 233.168 39.0428C233.054 38.9801 232.9 38.9687 232.718 39.0086C232.655 39.0257 232.581 39.0656 232.49 39.1396C232.404 39.208 232.313 39.2935 232.228 39.3846C232.142 39.4758 232.062 39.567 232 39.6468C231.937 39.7322 231.891 39.7949 231.869 39.8462C231.903 39.8861 231.965 39.9203 232.062 39.943C232.159 39.9658 232.262 39.9772 232.381 39.9772C232.501 39.9772 232.592 39.9658 232.672 39.9544V39.9487Z" fill="#6D6D6D"/>
<path d="M237.772 42.4502C237.738 42.4502 237.664 42.4217 237.544 42.359C237.424 42.2963 237.35 42.2508 237.316 42.2223C237.259 42.1596 237.225 42.0912 237.208 42.0114C237.191 41.9317 237.185 41.7835 237.185 41.5613C237.185 41.3049 237.236 41.0143 237.339 40.6952C237.441 40.3704 237.618 39.9374 237.863 39.3961L238.353 38.4046C238.393 38.3476 238.427 38.2963 238.461 38.2565C238.496 38.2109 238.53 38.171 238.57 38.1311H238.638C238.638 38.1311 238.689 38.1311 238.706 38.1425C238.78 38.1539 238.894 38.1938 239.048 38.2736C239.202 38.3533 239.299 38.473 239.327 38.6325C239.327 38.7351 239.31 38.8605 239.282 38.9972C239.248 39.1397 239.157 39.3163 238.997 39.5442C238.934 39.624 238.872 39.7379 238.809 39.8918C238.746 40.0456 238.695 40.1881 238.649 40.3248C238.644 40.3419 238.621 40.3818 238.581 40.4388C238.547 40.5015 238.513 40.5585 238.478 40.6211C238.444 40.6838 238.433 40.718 238.433 40.7351L238.387 40.8434L238.9 40.3419C239.259 39.983 239.561 39.7265 239.812 39.5784C240.057 39.4246 240.268 39.3619 240.439 39.3847C240.61 39.4075 240.746 39.51 240.849 39.6867C240.906 39.7664 240.946 39.8519 240.969 39.9431C240.991 40.0342 241.008 40.1425 241.014 40.2622C241.02 40.3818 241.014 40.5357 241.003 40.718V41.4018C241.157 41.3619 241.271 41.3277 241.35 41.2992C241.43 41.2707 241.51 41.2422 241.59 41.2194C241.652 41.2023 241.721 41.1852 241.789 41.1738C241.857 41.1624 241.943 41.1453 242.045 41.1396C242.04 41.2422 241.994 41.3733 241.914 41.5214C241.835 41.6753 241.738 41.8234 241.624 41.9773C241.51 42.1311 241.384 42.2565 241.253 42.359C241.122 42.4616 241.003 42.5129 240.889 42.5129C240.786 42.5129 240.667 42.4787 240.53 42.4103C240.393 42.3419 240.279 42.2109 240.182 42.0114C240.148 41.9089 240.12 41.7892 240.085 41.6525C240.051 41.5157 240.04 41.3733 240.04 41.2194V40.6952C240.04 40.6496 240.04 40.6154 240.034 40.5926C240.034 40.5755 240.023 40.5642 240.017 40.5642C239.983 40.5642 239.88 40.6496 239.709 40.8149C239.538 40.9801 239.362 41.1567 239.191 41.3391C238.826 41.7208 238.518 42.0057 238.273 42.1881C238.028 42.3704 237.863 42.4616 237.778 42.4616L237.772 42.4502Z" fill="#6D6D6D"/>
<path d="M45.3274 38.2846C42.0339 39.5096 38.4214 40.0794 34.6436 39.8173C22.0111 38.9341 11.8345 28.6606 11.0653 16.0225C10.712 10.2276 12.3074 4.82588 15.2476 0.392828C15.4071 0.153512 15.1963 -0.0915024 14.9285 0.0281558C5.73762 4.21049 -0.535882 13.692 0.0339182 24.5752C0.706283 37.4014 11.0596 47.8344 23.8801 48.598C32.7405 49.1279 40.6892 45.1108 45.6351 38.6663C45.8117 38.4327 45.6066 38.1877 45.3274 38.2903V38.2846ZM10.9285 25.692C10.5296 26.6834 9.84019 27.39 8.92281 27.7376C8.45557 27.9142 7.96554 27.9826 7.5154 27.9826C6.80315 27.9826 6.17637 27.8173 5.83449 27.6464C5.5268 27.4925 5.40144 27.1165 5.55529 26.8088C5.70913 26.5011 6.0852 26.3757 6.39289 26.5296C6.6436 26.6549 7.60657 26.9 8.47836 26.5695C9.06526 26.3472 9.49831 25.8971 9.76611 25.2247C9.89717 24.9056 10.2561 24.7518 10.5752 24.8772C10.8943 25.0082 11.0482 25.3672 10.9228 25.6863L10.9285 25.692Z" fill="#D5B811"/>
<path d="M13.1279 25.738L19.5325 28.342L16.051 33.6469L13.1279 25.738Z" fill="#D5B811"/>
<path d="M42.7292 27.037L37.715 7.13959C37.6751 6.98004 37.5725 6.84329 37.4301 6.75782C37.2876 6.67235 37.1167 6.64956 36.9571 6.68945L34.8147 7.23076C34.6665 7.27064 34.5526 7.36181 34.4671 7.47577L21.3902 11.6011C20.1936 11.9772 19.4984 13.2251 19.8061 14.4387L23.9657 30.9402C24.1252 31.5726 24.5412 32.114 25.111 32.4273C25.4642 32.6268 25.8688 32.7293 26.2677 32.7293C26.507 32.7293 26.7463 32.6951 26.9799 32.6211L40.7463 28.2849C40.9172 28.2279 41.0768 28.1538 41.2249 28.0684L42.2791 27.8006C42.4386 27.7607 42.5754 27.6581 42.6608 27.5157C42.7463 27.3732 42.7691 27.2023 42.7292 27.0427V27.037ZM26.5982 31.4302C26.2962 31.5214 25.9828 31.4929 25.715 31.339C25.4415 31.1852 25.2477 30.9345 25.1736 30.6325L21.0141 14.131C20.8717 13.5555 21.1964 12.963 21.7662 12.7863L34.5583 8.75212L39.2648 27.4359L26.5982 31.4302Z" fill="#D5B811"/>
<path d="M37.7099 7.13392C37.7099 7.13392 37.7099 7.12822 37.7099 7.12253C37.6869 7.04845 37.6525 6.98577 37.6123 6.9231C37.6582 6.98577 37.6927 7.05415 37.7099 7.12822V7.13392Z" fill="#D5B811"/>
<path d="M37.2305 6.68945C37.2874 6.70085 37.3444 6.72364 37.4014 6.75213C37.3501 6.72364 37.2931 6.70085 37.2305 6.68945Z" fill="#D5B811"/>
<path d="M22.7008 11.1795L23.8917 10.8034L23.1567 8.50709C23.1453 8.45581 23.1567 8.41592 23.1795 8.39313C23.2022 8.37034 23.2307 8.34185 23.282 8.34185L32.621 8.05695L34.4786 7.47005C34.5641 7.35609 34.678 7.26493 34.8262 7.22504L36.9686 6.68373C37.0313 6.66663 37.0997 6.66663 37.1681 6.67233C37.1453 6.67233 37.1225 6.66094 37.0997 6.66663L23.2478 7.09398C22.8205 7.10538 22.433 7.31051 22.1766 7.65239C21.9259 7.99427 21.8461 8.42732 21.9658 8.86037L22.7065 11.1738L22.7008 11.1795Z" fill="#D5B811"/>
</g>
<defs>
<clipPath id="clip0_141_277">
<rect width="280" height="48.6439" fill="white"/>
</clipPath>
</defs>
</svg>
